<?xml version="1.0" encoding="utf-8"?>
<!-- Generator: Adobe Illustrator 22.1.0, SVG Export Plug-In . SVG Version: 6.00 Build 0)  -->
<svg version="1.1" id="Layer_1" xmlns="http://www.w3.org/2000/svg" xmlns:xlink="http://www.w3.org/1999/xlink" x="0px" y="0px"
	 viewBox="0 0 420 420" enable-background="new 0 0 420 420" xml:space="preserve">
<circle fill="#DDDDDD" cx="210" cy="210" r="209"/>
<g>
	<path fill="#FFFFFF" d="M179.6,142.3v14.4h-3.1c-13.2,0.2-23.7,4.2-31.5,11.7c-7.8,7.6-12.3,18.2-13.6,32
		c7-8.1,16.6-12.1,28.8-12.1c11.6,0,20.9,4.1,27.8,12.3c6.9,8.2,10.4,18.8,10.4,31.7c0,13.7-3.7,24.7-11.2,33
		c-7.5,8.2-17.5,12.4-30.1,12.4c-12.8,0-23.1-4.9-31.1-14.7c-7.9-9.8-11.9-22.4-11.9-37.9v-6.5c0-24.6,5.2-43.3,15.7-56.3
		c10.5-13,26.1-19.6,46.8-19.9H179.6z M157.3,202.4c-5.8,0-11.2,1.7-16,5.2c-4.9,3.5-8.3,7.9-10.2,13.1v6.2c0,11,2.5,19.9,7.4,26.6
		c4.9,6.7,11.1,10.1,18.5,10.1c7.6,0,13.6-2.8,18-8.4c4.4-5.6,6.6-13,6.6-22.1c0-9.2-2.2-16.6-6.6-22.2
		C170.5,205.3,164.6,202.4,157.3,202.4z"/>
	<path fill="#FFFFFF" d="M268.7,204.3H306v16h-37.2v42.2h-17v-42.2h-37.2v-16h37.2v-38.9h17V204.3z"/>
</g>
</svg>
