<?xml version="1.0" encoding="utf-8"?>
<!-- Generator: Adobe Illustrator 22.1.0, SVG Export Plug-In . SVG Version: 6.00 Build 0)  -->
<svg version="1.1" id="Layer_1" xmlns="http://www.w3.org/2000/svg" xmlns:xlink="http://www.w3.org/1999/xlink" x="0px" y="0px"
	 viewBox="0 0 420 420" enable-background="new 0 0 420 420" xml:space="preserve">
<circle fill="#DDDDDD" cx="210" cy="210" r="209"/>
<g>
	<path fill="#FFFFFF" d="M222.6,210c-0.7,14.2-4.2,25.5-10.6,33.7c-6.4,8.2-14.9,12.4-25.5,12.4c-11,0-18.1-4.9-21.2-14.8
		c-3.2,5-6.8,8.7-10.9,11.2s-8.3,3.7-12.7,3.7c-8.4,0-14.7-3.4-19-10.2c-4.3-6.8-5.9-16.3-4.8-28.3c0.9-9.7,3.1-18.4,6.7-26
		c3.6-7.6,8.1-13.6,13.8-18c5.6-4.4,11.5-6.5,17.7-6.5c4.8,0,9,0.6,12.8,1.9c3.8,1.3,8,3.7,12.7,7.5l-4.6,48.9
		c-1.1,13.6,2.6,20.4,11.3,20.4c6.7,0,12-3.3,16.2-9.9c4.1-6.6,6.4-15.2,6.7-25.8c1.1-22.9-3.1-40.3-12.8-52.3
		c-9.6-12-24.3-18-43.9-18c-11.8,0-22.3,2.9-31.5,8.8c-9.2,5.9-16.4,14.3-21.7,25.4c-5.3,11.1-8.3,23.8-8.9,38.3
		c-0.7,14.6,1.1,27.3,5.3,38c4.2,10.7,10.7,18.9,19.4,24.6c8.7,5.7,19.2,8.5,31.5,8.5c5.3,0,10.6-0.6,15.9-1.9c5.3-1.3,9.8-3,13.3-5
		l3.3,10.1c-3.6,2.3-8.5,4.2-14.5,5.6c-6,1.5-12.1,2.2-18.3,2.2c-14.7,0-27.4-3.3-37.9-9.9s-18.5-16.2-23.8-28.6
		c-5.3-12.4-7.5-27-6.8-43.6c0.7-16.2,4.3-30.7,10.9-43.6c6.5-12.9,15.4-22.9,26.6-29.9c11.2-7,23.8-10.5,37.9-10.5
		c14.7,0,27.2,3.3,37.7,9.9c10.5,6.6,18.3,16.1,23.4,28.5C221.1,178.8,223.3,193.3,222.6,210z M132,217.5c-0.8,8.4,0,14.8,2.3,19.2
		c2.4,4.5,6.2,6.7,11.3,6.7c3.5,0,6.9-1.5,10.2-4.5c3.3-3,6-7.3,8.1-12.9l0.1-0.8l4.1-44.4c-3.3-1.7-6.8-2.6-10.6-2.6
		c-6.9,0-12.6,3.5-17.1,10.5C136,195.8,133.2,205.3,132,217.5z"/>
	<path fill="#FFFFFF" d="M299,218.2h-23.3l-7.1,36.1H256l7.1-36.1H242V206h23.4l6.1-31.3h-22.8v-12.2h25.2l7.2-36.7h12.6l-7.2,36.7
		h23.3l7.2-36.7h12.7l-7.2,36.7h18v12.2h-20.4L314,206h19.9v12.2h-22.2l-7.1,36.1H292L299,218.2z M278,206h23.3l6.1-31.3h-23.3
		L278,206z"/>
</g>
</svg>
