<?xml version="1.0" encoding="utf-8"?>
<!-- Generator: Adobe Illustrator 22.1.0, SVG Export Plug-In . SVG Version: 6.00 Build 0)  -->
<svg version="1.1" id="Layer_1" xmlns="http://www.w3.org/2000/svg" xmlns:xlink="http://www.w3.org/1999/xlink" x="0px" y="0px"
	 viewBox="0 0 420 420" enable-background="new 0 0 420 420" xml:space="preserve">
<circle fill="#DDDDDD" cx="210" cy="210" r="209"/>
<g>
	<path fill="#FFFFFF" d="M190.8,240.9h-55.9l-12.6,34.9h-18.1l51-133.4h15.4l51,133.4h-18.1L190.8,240.9z M140.2,226.5h45.4
		l-22.7-62.4L140.2,226.5z"/>
	<path fill="#FFFFFF" d="M298.1,275.8c-1-2-1.8-5.4-2.4-10.4c-7.9,8.2-17.3,12.3-28.2,12.3c-9.8,0-17.8-2.8-24.1-8.3
		c-6.3-5.5-9.4-12.5-9.4-21c0-10.3,3.9-18.3,11.8-24.1c7.8-5.7,18.9-8.6,33.1-8.6h16.5v-7.8c0-5.9-1.8-10.6-5.3-14.2
		c-3.5-3.5-8.8-5.3-15.7-5.3c-6,0-11.1,1.5-15.2,4.6c-4.1,3.1-6.1,6.8-6.1,11.1h-17c0-4.9,1.8-9.7,5.3-14.3c3.5-4.6,8.3-8.3,14.3-11
		c6-2.7,12.6-4,19.8-4c11.4,0,20.4,2.9,26.9,8.6c6.5,5.7,9.8,13.6,10.1,23.6v45.6c0,9.1,1.2,16.3,3.5,21.7v1.5H298.1z M269.9,262.9
		c5.3,0,10.4-1.4,15.1-4.1c4.8-2.7,8.2-6.3,10.4-10.7v-20.3h-13.3c-20.8,0-31.2,6.1-31.2,18.2c0,5.3,1.8,9.5,5.3,12.5
		C259.8,261.4,264.4,262.9,269.9,262.9z"/>
</g>
</svg>
