<?xml version="1.0" encoding="utf-8"?>
<!-- Generator: Adobe Illustrator 22.1.0, SVG Export Plug-In . SVG Version: 6.00 Build 0)  -->
<svg version="1.1" id="Layer_1" xmlns="http://www.w3.org/2000/svg" xmlns:xlink="http://www.w3.org/1999/xlink" x="0px" y="0px"
	 viewBox="0 0 420 420" enable-background="new 0 0 420 420" xml:space="preserve">
<circle fill="#DDDDDD" cx="210" cy="210" r="209"/>
<g>
	<path fill="#FFFFFF" d="M124.2,271.6h-15.7V167.3l-31.6,11.6v-14.2l44.8-16.8h2.5V271.6z"/>
	<path fill="#FFFFFF" d="M250.7,271.6H170v-11.3l42.6-47.4c6.3-7.2,10.7-13,13.1-17.5c2.4-4.5,3.6-9.1,3.6-13.9
		c0-6.4-1.9-11.7-5.8-15.8c-3.9-4.1-9.1-6.2-15.6-6.2c-7.8,0-13.8,2.2-18.1,6.6c-4.3,4.4-6.5,10.6-6.5,18.5h-15.7
		c0-11.3,3.7-20.5,11-27.5c7.3-7,17.1-10.5,29.3-10.5c11.4,0,20.5,3,27.2,9c6.7,6,10,14,10,24c0,12.1-7.7,26.6-23.2,43.3l-33,35.8
		h61.8V271.6z"/>
	<path fill="#FFFFFF" d="M290.1,202.4h11.8c7.4-0.1,13.2-2.1,17.4-5.8c4.2-3.8,6.3-8.9,6.3-15.3c0-14.4-7.2-21.7-21.6-21.7
		c-6.8,0-12.2,1.9-16.2,5.8c-4,3.9-6,9-6,15.4h-15.7c0-9.8,3.6-17.9,10.7-24.3c7.1-6.5,16.2-9.7,27.2-9.7c11.6,0,20.7,3.1,27.3,9.2
		c6.6,6.1,9.9,14.7,9.9,25.6c0,5.4-1.7,10.5-5.2,15.6c-3.5,5-8.2,8.8-14.2,11.3c6.8,2.1,12,5.7,15.7,10.7c3.7,5,5.5,11,5.5,18.2
		c0,11.1-3.6,19.8-10.8,26.3c-7.2,6.5-16.6,9.7-28.2,9.7c-11.6,0-21-3.1-28.2-9.4c-7.2-6.3-10.9-14.5-10.9-24.8h15.7
		c0,6.5,2.1,11.7,6.3,15.6c4.2,3.9,9.9,5.8,17,5.8c7.6,0,13.3-2,17.3-5.9c4-3.9,6-9.6,6-17c0-7.2-2.2-12.7-6.6-16.5
		c-4.4-3.8-10.7-5.8-19-5.9h-11.8V202.4z"/>
</g>
</svg>
