<?xml version="1.0" encoding="utf-8"?>
<!-- Generator: Adobe Illustrator 18.0.0, SVG Export Plug-In . SVG Version: 6.00 Build 0)  -->
<!DOCTYPE svg PUBLIC "-//W3C//DTD SVG 1.1//EN" "http://www.w3.org/Graphics/SVG/1.1/DTD/svg11.dtd">
<svg version="1.1" id="Layer_1" xmlns="http://www.w3.org/2000/svg" xmlns:xlink="http://www.w3.org/1999/xlink" x="0px" y="0px"
	 viewBox="0 0 58 58" enable-background="new 0 0 58 58" xml:space="preserve">
<g>
	<g>
		<path fill="#433E3C" d="M11.8,68.8h0.9v3.8h5.9v0.8h-5.9v7.4c0,3.2,1,4.8,3.6,4.8c0.9,0,1.7-0.4,2.2-0.7l0.4,0.7
			c-0.6,0.4-1.6,0.9-2.7,0.9c-3,0-4.3-1.9-4.3-5.4V68.8z"/>
		<path fill="#433E3C" d="M22.4,73.5c1.3-0.8,2.6-1.2,4.2-1.2c3.7,0,4.9,2,4.9,5.4v8.5h-0.9v-2.4c-0.9,1.2-2.4,2.5-5.1,2.5
			c-2.6,0-4.3-1.6-4.3-3.9c0-2.7,2.2-4.2,5.2-4.2c1.1,0,2.9,0.2,4.1,1.1c0-3.8-0.2-6.3-4.2-6.3c-1.6,0-2.5,0.4-3.8,1.2L22.4,73.5z
			 M30.7,83v-2.7c-1.2-0.8-2.5-1.2-4.1-1.2c-2.1,0-4.3,1-4.3,3.4c0,2,1.6,3.2,3.5,3.2C28.6,85.6,29.8,84.2,30.7,83z"/>
		<path fill="#433E3C" d="M36.4,72.6h0.9v2c1.1-1.3,3.2-2.3,5.3-2.3c4.1,0,6.5,2.9,6.5,6.9c0,4.2-2.8,7.3-7,7.3
			c-1.9,0-3.6-0.4-4.8-1.4v7.2h-0.9V72.6z M37.3,75.4v8.8c1.6,1.1,3.2,1.5,4.8,1.5c3.6,0,6.1-2.6,6.1-6.4c0-3.7-2.1-6.2-5.8-6.2
			C40.2,73.1,38.2,74.3,37.3,75.4z"/>
	</g>
	<g>
		<path fill="#433E3C" d="M29,1.2C13.4,1.2,0.8,13.8,0.8,29.3S13.4,57.5,29,57.5c15.6,0,28.2-12.6,28.2-28.2S44.6,1.2,29,1.2z
			 M29,53.4c-13.3,0-24.1-10.8-24.1-24.1C4.9,16,15.7,5.3,29,5.3c13.3,0,24.1,10.8,24.1,24.1C53.1,42.6,42.3,53.4,29,53.4z"/>
		<path fill="#433E3C" d="M29,8.9C17.7,8.9,8.5,18,8.5,29.3c0,11.3,9.2,20.5,20.5,20.5c11.3,0,20.5-9.2,20.5-20.5
			C49.5,18,40.3,8.9,29,8.9z M29,45.3c-8.8,0-16-7.2-16-16c0-8.8,7.2-16,16-16c8.8,0,16,7.2,16,16C45,38.2,37.8,45.3,29,45.3z"/>
	</g>
</g>
</svg>
